M48
; DRILL file {KiCad (5.1.9)-1} date 07/20/21 15:51:20
; FORMAT={-:-/ absolute / inch / decimal}
; #@! TF.CreationDate,2021-07-20T15:51:20-07:00
; #@! TF.GenerationSoftware,Kicad,Pcbnew,(5.1.9)-1
; #@! TF.FileFunction,Plated,1,2,PTH
FMAT,2
INCH
T1C0.0157
T2C0.0394
T3C0.0472
%
G90
G05
T1
X5.645Y-3.365
X5.77Y-3.54
X5.84Y-3.22
X6.2872Y-3.3928
X6.5Y-3.25
X6.5Y-3.36
X6.86Y-3.54
T2
X6.77Y-3.05
X6.77Y-3.15
X6.77Y-3.25
X6.77Y-3.35
X6.77Y-3.45
T3
X5.2Y-3.1622
X5.2Y-3.3
X5.54Y-3.02
X5.6778Y-3.02
X5.8156Y-3.02
X6.04Y-3.02
X6.1778Y-3.02
X6.3156Y-3.02
X6.4534Y-3.02
T0
M30
