%TF.GenerationSoftware,KiCad,Pcbnew,(5.1.9)-1*%
%TF.CreationDate,2021-07-20T15:51:08-07:00*%
%TF.ProjectId,Wie to serial,57696520-746f-4207-9365-7269616c2e6b,rev?*%
%TF.SameCoordinates,Original*%
%TF.FileFunction,Legend,Top*%
%TF.FilePolarity,Positive*%
%FSLAX46Y46*%
G04 Gerber Fmt 4.6, Leading zero omitted, Abs format (unit mm)*
G04 Created by KiCad (PCBNEW (5.1.9)-1) date 2021-07-20 15:51:08*
%MOMM*%
%LPD*%
G01*
G04 APERTURE LIST*
%ADD10C,0.203200*%
%ADD11C,0.150000*%
%ADD12C,0.120000*%
G04 APERTURE END LIST*
D10*
X132107214Y-76215119D02*
X132107214Y-75199119D01*
X132445880Y-75924833D01*
X132784547Y-75199119D01*
X132784547Y-76215119D01*
X133655404Y-76166738D02*
X133558642Y-76215119D01*
X133365119Y-76215119D01*
X133268357Y-76166738D01*
X133219976Y-76069976D01*
X133219976Y-75682928D01*
X133268357Y-75586166D01*
X133365119Y-75537785D01*
X133558642Y-75537785D01*
X133655404Y-75586166D01*
X133703785Y-75682928D01*
X133703785Y-75779690D01*
X133219976Y-75876452D01*
X133558642Y-75150738D02*
X133413500Y-75295880D01*
X134042452Y-76215119D02*
X134574642Y-75537785D01*
X134042452Y-75537785D02*
X134574642Y-76215119D01*
X134961690Y-76215119D02*
X134961690Y-75537785D01*
X134961690Y-75199119D02*
X134913309Y-75247500D01*
X134961690Y-75295880D01*
X135010071Y-75247500D01*
X134961690Y-75199119D01*
X134961690Y-75295880D01*
X135880928Y-76166738D02*
X135784166Y-76215119D01*
X135590642Y-76215119D01*
X135493880Y-76166738D01*
X135445500Y-76118357D01*
X135397119Y-76021595D01*
X135397119Y-75731309D01*
X135445500Y-75634547D01*
X135493880Y-75586166D01*
X135590642Y-75537785D01*
X135784166Y-75537785D01*
X135880928Y-75586166D01*
X136461500Y-76215119D02*
X136364738Y-76166738D01*
X136316357Y-76118357D01*
X136267976Y-76021595D01*
X136267976Y-75731309D01*
X136316357Y-75634547D01*
X136364738Y-75586166D01*
X136461500Y-75537785D01*
X136606642Y-75537785D01*
X136703404Y-75586166D01*
X136751785Y-75634547D01*
X136800166Y-75731309D01*
X136800166Y-76021595D01*
X136751785Y-76118357D01*
X136703404Y-76166738D01*
X136606642Y-76215119D01*
X136461500Y-76215119D01*
X133972904Y-74134738D02*
X133876142Y-74183119D01*
X133682619Y-74183119D01*
X133585857Y-74134738D01*
X133537476Y-74037976D01*
X133537476Y-73650928D01*
X133585857Y-73554166D01*
X133682619Y-73505785D01*
X133876142Y-73505785D01*
X133972904Y-73554166D01*
X134021285Y-73650928D01*
X134021285Y-73747690D01*
X133537476Y-73844452D01*
X134456714Y-73505785D02*
X134456714Y-74183119D01*
X134456714Y-73602547D02*
X134505095Y-73554166D01*
X134601857Y-73505785D01*
X134747000Y-73505785D01*
X134843761Y-73554166D01*
X134892142Y-73650928D01*
X134892142Y-74183119D01*
X132025571Y-72399071D02*
X132025571Y-71256071D01*
X132025571Y-71800357D02*
X132678714Y-71800357D01*
X132678714Y-72399071D02*
X132678714Y-71256071D01*
X133658428Y-72344642D02*
X133549571Y-72399071D01*
X133331857Y-72399071D01*
X133223000Y-72344642D01*
X133168571Y-72235785D01*
X133168571Y-71800357D01*
X133223000Y-71691500D01*
X133331857Y-71637071D01*
X133549571Y-71637071D01*
X133658428Y-71691500D01*
X133712857Y-71800357D01*
X133712857Y-71909214D01*
X133168571Y-72018071D01*
X134692571Y-72344642D02*
X134583714Y-72399071D01*
X134366000Y-72399071D01*
X134257142Y-72344642D01*
X134202714Y-72290214D01*
X134148285Y-72181357D01*
X134148285Y-71854785D01*
X134202714Y-71745928D01*
X134257142Y-71691500D01*
X134366000Y-71637071D01*
X134583714Y-71637071D01*
X134692571Y-71691500D01*
X135182428Y-72399071D02*
X135182428Y-71256071D01*
X135672285Y-72399071D02*
X135672285Y-71800357D01*
X135617857Y-71691500D01*
X135509000Y-71637071D01*
X135345714Y-71637071D01*
X135236857Y-71691500D01*
X135182428Y-71745928D01*
X136379857Y-72399071D02*
X136271000Y-72344642D01*
X136216571Y-72290214D01*
X136162142Y-72181357D01*
X136162142Y-71854785D01*
X136216571Y-71745928D01*
X136271000Y-71691500D01*
X136379857Y-71637071D01*
X136543142Y-71637071D01*
X136652000Y-71691500D01*
X136706428Y-71745928D01*
X136760857Y-71854785D01*
X136760857Y-72181357D01*
X136706428Y-72290214D01*
X136652000Y-72344642D01*
X136543142Y-72399071D01*
X136379857Y-72399071D01*
D11*
X164782690Y-91844880D02*
X165116023Y-92844880D01*
X165449357Y-91844880D01*
X166306500Y-92844880D02*
X165735071Y-92844880D01*
X166020785Y-92844880D02*
X166020785Y-91844880D01*
X165925547Y-91987738D01*
X165830309Y-92082976D01*
X165735071Y-92130595D01*
X166735071Y-92749642D02*
X166782690Y-92797261D01*
X166735071Y-92844880D01*
X166687452Y-92797261D01*
X166735071Y-92749642D01*
X166735071Y-92844880D01*
X167401738Y-91844880D02*
X167496976Y-91844880D01*
X167592214Y-91892500D01*
X167639833Y-91940119D01*
X167687452Y-92035357D01*
X167735071Y-92225833D01*
X167735071Y-92463928D01*
X167687452Y-92654404D01*
X167639833Y-92749642D01*
X167592214Y-92797261D01*
X167496976Y-92844880D01*
X167401738Y-92844880D01*
X167306500Y-92797261D01*
X167258880Y-92749642D01*
X167211261Y-92654404D01*
X167163642Y-92463928D01*
X167163642Y-92225833D01*
X167211261Y-92035357D01*
X167258880Y-91940119D01*
X167306500Y-91892500D01*
X167401738Y-91844880D01*
X161861500Y-71219785D02*
X161680071Y-70457785D01*
X161534928Y-71002071D01*
X161389785Y-70457785D01*
X161208357Y-71219785D01*
X160918071Y-70457785D02*
X160918071Y-71219785D01*
X160591500Y-70457785D02*
X160591500Y-70856928D01*
X160627785Y-70929500D01*
X160700357Y-70965785D01*
X160809214Y-70965785D01*
X160881785Y-70929500D01*
X160918071Y-70893214D01*
X160228642Y-70457785D02*
X160228642Y-70965785D01*
X160228642Y-71219785D02*
X160264928Y-71183500D01*
X160228642Y-71147214D01*
X160192357Y-71183500D01*
X160228642Y-71219785D01*
X160228642Y-71147214D01*
X159974642Y-70965785D02*
X159684357Y-70965785D01*
X159865785Y-71219785D02*
X159865785Y-70566642D01*
X159829500Y-70494071D01*
X159756928Y-70457785D01*
X159684357Y-70457785D01*
X159140071Y-70494071D02*
X159212642Y-70457785D01*
X159357785Y-70457785D01*
X159430357Y-70494071D01*
X159466642Y-70566642D01*
X159466642Y-70856928D01*
X159430357Y-70929500D01*
X159357785Y-70965785D01*
X159212642Y-70965785D01*
X159140071Y-70929500D01*
X159103785Y-70856928D01*
X159103785Y-70784357D01*
X159466642Y-70711785D01*
X157942642Y-71120000D02*
X158015214Y-71156285D01*
X158124071Y-71156285D01*
X158232928Y-71120000D01*
X158305500Y-71047428D01*
X158341785Y-70974857D01*
X158378071Y-70829714D01*
X158378071Y-70720857D01*
X158341785Y-70575714D01*
X158305500Y-70503142D01*
X158232928Y-70430571D01*
X158124071Y-70394285D01*
X158051500Y-70394285D01*
X157942642Y-70430571D01*
X157906357Y-70466857D01*
X157906357Y-70720857D01*
X158051500Y-70720857D01*
X157579785Y-70394285D02*
X157579785Y-70902285D01*
X157579785Y-70757142D02*
X157543500Y-70829714D01*
X157507214Y-70866000D01*
X157434642Y-70902285D01*
X157362071Y-70902285D01*
X156817785Y-70430571D02*
X156890357Y-70394285D01*
X157035500Y-70394285D01*
X157108071Y-70430571D01*
X157144357Y-70503142D01*
X157144357Y-70793428D01*
X157108071Y-70866000D01*
X157035500Y-70902285D01*
X156890357Y-70902285D01*
X156817785Y-70866000D01*
X156781500Y-70793428D01*
X156781500Y-70720857D01*
X157144357Y-70648285D01*
X156164642Y-70430571D02*
X156237214Y-70394285D01*
X156382357Y-70394285D01*
X156454928Y-70430571D01*
X156491214Y-70503142D01*
X156491214Y-70793428D01*
X156454928Y-70866000D01*
X156382357Y-70902285D01*
X156237214Y-70902285D01*
X156164642Y-70866000D01*
X156128357Y-70793428D01*
X156128357Y-70720857D01*
X156491214Y-70648285D01*
X155801785Y-70902285D02*
X155801785Y-70394285D01*
X155801785Y-70829714D02*
X155765500Y-70866000D01*
X155692928Y-70902285D01*
X155584071Y-70902285D01*
X155511500Y-70866000D01*
X155475214Y-70793428D01*
X155475214Y-70394285D01*
X164972904Y-72191500D02*
X165068142Y-72239119D01*
X165211000Y-72239119D01*
X165353857Y-72191500D01*
X165449095Y-72096261D01*
X165496714Y-72001023D01*
X165544333Y-71810547D01*
X165544333Y-71667690D01*
X165496714Y-71477214D01*
X165449095Y-71381976D01*
X165353857Y-71286738D01*
X165211000Y-71239119D01*
X165115761Y-71239119D01*
X164972904Y-71286738D01*
X164925285Y-71334357D01*
X164925285Y-71667690D01*
X165115761Y-71667690D01*
X164496714Y-71239119D02*
X164496714Y-72239119D01*
X163925285Y-71239119D01*
X163925285Y-72239119D01*
X163449095Y-71239119D02*
X163449095Y-72239119D01*
X163211000Y-72239119D01*
X163068142Y-72191500D01*
X162972904Y-72096261D01*
X162925285Y-72001023D01*
X162877666Y-71810547D01*
X162877666Y-71667690D01*
X162925285Y-71477214D01*
X162972904Y-71381976D01*
X163068142Y-71286738D01*
X163211000Y-71239119D01*
X163449095Y-71239119D01*
X161266095Y-71747119D02*
X161266095Y-72747119D01*
X161028000Y-72747119D01*
X160885142Y-72699500D01*
X160789904Y-72604261D01*
X160742285Y-72509023D01*
X160694666Y-72318547D01*
X160694666Y-72175690D01*
X160742285Y-71985214D01*
X160789904Y-71889976D01*
X160885142Y-71794738D01*
X161028000Y-71747119D01*
X161266095Y-71747119D01*
X159742285Y-71747119D02*
X160313714Y-71747119D01*
X160028000Y-71747119D02*
X160028000Y-72747119D01*
X160123238Y-72604261D01*
X160218476Y-72509023D01*
X160313714Y-72461404D01*
X157646595Y-71747119D02*
X157646595Y-72747119D01*
X157408500Y-72747119D01*
X157265642Y-72699500D01*
X157170404Y-72604261D01*
X157122785Y-72509023D01*
X157075166Y-72318547D01*
X157075166Y-72175690D01*
X157122785Y-71985214D01*
X157170404Y-71889976D01*
X157265642Y-71794738D01*
X157408500Y-71747119D01*
X157646595Y-71747119D01*
X156456119Y-72747119D02*
X156360880Y-72747119D01*
X156265642Y-72699500D01*
X156218023Y-72651880D01*
X156170404Y-72556642D01*
X156122785Y-72366166D01*
X156122785Y-72128071D01*
X156170404Y-71937595D01*
X156218023Y-71842357D01*
X156265642Y-71794738D01*
X156360880Y-71747119D01*
X156456119Y-71747119D01*
X156551357Y-71794738D01*
X156598976Y-71842357D01*
X156646595Y-71937595D01*
X156694214Y-72128071D01*
X156694214Y-72366166D01*
X156646595Y-72556642D01*
X156598976Y-72651880D01*
X156551357Y-72699500D01*
X156456119Y-72747119D01*
X153781047Y-71302619D02*
X154352476Y-71302619D01*
X154066761Y-71302619D02*
X154066761Y-72302619D01*
X154162000Y-72159761D01*
X154257238Y-72064523D01*
X154352476Y-72016904D01*
X153400095Y-72207380D02*
X153352476Y-72255000D01*
X153257238Y-72302619D01*
X153019142Y-72302619D01*
X152923904Y-72255000D01*
X152876285Y-72207380D01*
X152828666Y-72112142D01*
X152828666Y-72016904D01*
X152876285Y-71874047D01*
X153447714Y-71302619D01*
X152828666Y-71302619D01*
X152542952Y-72302619D02*
X152209619Y-71302619D01*
X151876285Y-72302619D01*
D12*
X162306000Y-73215500D02*
X162306000Y-70104000D01*
X158686500Y-73215500D02*
X158686500Y-70104000D01*
X155194000Y-73215500D02*
X155194000Y-70167500D01*
X166052500Y-70040500D02*
X165862000Y-70040500D01*
X166076000Y-73248000D02*
X166052500Y-70040500D01*
X151257000Y-70104000D02*
X165862000Y-70040500D01*
X151256000Y-73248000D02*
X151257000Y-70104000D01*
D11*
X148716904Y-72255000D02*
X148812142Y-72302619D01*
X148955000Y-72302619D01*
X149097857Y-72255000D01*
X149193095Y-72159761D01*
X149240714Y-72064523D01*
X149288333Y-71874047D01*
X149288333Y-71731190D01*
X149240714Y-71540714D01*
X149193095Y-71445476D01*
X149097857Y-71350238D01*
X148955000Y-71302619D01*
X148859761Y-71302619D01*
X148716904Y-71350238D01*
X148669285Y-71397857D01*
X148669285Y-71731190D01*
X148859761Y-71731190D01*
X148240714Y-71302619D02*
X148240714Y-72302619D01*
X147669285Y-71302619D01*
X147669285Y-72302619D01*
X147193095Y-71302619D02*
X147193095Y-72302619D01*
X146955000Y-72302619D01*
X146812142Y-72255000D01*
X146716904Y-72159761D01*
X146669285Y-72064523D01*
X146621666Y-71874047D01*
X146621666Y-71731190D01*
X146669285Y-71540714D01*
X146716904Y-71445476D01*
X146812142Y-71350238D01*
X146955000Y-71302619D01*
X147193095Y-71302619D01*
X144938666Y-71239119D02*
X145272000Y-71715309D01*
X145510095Y-71239119D02*
X145510095Y-72239119D01*
X145129142Y-72239119D01*
X145033904Y-72191500D01*
X144986285Y-72143880D01*
X144938666Y-72048642D01*
X144938666Y-71905785D01*
X144986285Y-71810547D01*
X145033904Y-71762928D01*
X145129142Y-71715309D01*
X145510095Y-71715309D01*
X144605333Y-72239119D02*
X143938666Y-71239119D01*
X143938666Y-72239119D02*
X144605333Y-71239119D01*
X143557714Y-71239119D02*
X143557714Y-72239119D01*
X143319619Y-72239119D01*
X143176761Y-72191500D01*
X143081523Y-72096261D01*
X143033904Y-72001023D01*
X142986285Y-71810547D01*
X142986285Y-71667690D01*
X143033904Y-71477214D01*
X143081523Y-71381976D01*
X143176761Y-71286738D01*
X143319619Y-71239119D01*
X143557714Y-71239119D01*
X141723904Y-72239119D02*
X141152476Y-72239119D01*
X141438190Y-71239119D02*
X141438190Y-72239119D01*
X140914380Y-72239119D02*
X140247714Y-71239119D01*
X140247714Y-72239119D02*
X140914380Y-71239119D01*
X139866761Y-71239119D02*
X139866761Y-72239119D01*
X139628666Y-72239119D01*
X139485809Y-72191500D01*
X139390571Y-72096261D01*
X139342952Y-72001023D01*
X139295333Y-71810547D01*
X139295333Y-71667690D01*
X139342952Y-71477214D01*
X139390571Y-71381976D01*
X139485809Y-71286738D01*
X139628666Y-71239119D01*
X139866761Y-71239119D01*
D12*
X146113500Y-73215500D02*
X146113500Y-70104000D01*
X142430500Y-73215500D02*
X142430500Y-70104000D01*
X138556000Y-73248000D02*
X138557000Y-70040500D01*
X149860000Y-70040500D02*
X138557000Y-70040500D01*
X149876000Y-73248000D02*
X149860000Y-70040500D01*
X128625600Y-82219800D02*
X125095000Y-82219800D01*
X125069600Y-85979000D02*
X128620000Y-85980000D01*
X125069600Y-85852000D02*
X125069600Y-85979000D01*
X125095000Y-78130400D02*
X125069600Y-85852000D01*
X128600200Y-78130400D02*
X125095000Y-78130400D01*
D10*
X127381000Y-79194780D02*
X127441476Y-79073828D01*
X127441476Y-78892400D01*
X127381000Y-78710971D01*
X127260047Y-78590019D01*
X127139095Y-78529542D01*
X126897190Y-78469066D01*
X126715761Y-78469066D01*
X126473857Y-78529542D01*
X126352904Y-78590019D01*
X126231952Y-78710971D01*
X126171476Y-78892400D01*
X126171476Y-79013352D01*
X126231952Y-79194780D01*
X126292428Y-79255257D01*
X126715761Y-79255257D01*
X126715761Y-79013352D01*
X126171476Y-79799542D02*
X127441476Y-79799542D01*
X126171476Y-80525257D01*
X127441476Y-80525257D01*
X126171476Y-81130019D02*
X127441476Y-81130019D01*
X127441476Y-81432400D01*
X127381000Y-81613828D01*
X127260047Y-81734780D01*
X127139095Y-81795257D01*
X126897190Y-81855733D01*
X126715761Y-81855733D01*
X126473857Y-81795257D01*
X126352904Y-81734780D01*
X126231952Y-81613828D01*
X126171476Y-81432400D01*
X126171476Y-81130019D01*
X126273076Y-83262409D02*
X126273076Y-82536695D01*
X126273076Y-82899552D02*
X127543076Y-82899552D01*
X127361647Y-82778600D01*
X127240695Y-82657647D01*
X127180219Y-82536695D01*
X127422123Y-83746219D02*
X127482600Y-83806695D01*
X127543076Y-83927647D01*
X127543076Y-84230028D01*
X127482600Y-84350980D01*
X127422123Y-84411457D01*
X127301171Y-84471933D01*
X127180219Y-84471933D01*
X126998790Y-84411457D01*
X126273076Y-83685742D01*
X126273076Y-84471933D01*
X127543076Y-84834790D02*
X126273076Y-85258123D01*
X127543076Y-85681457D01*
D12*
X169164000Y-77216000D02*
X170180000Y-76200000D01*
X170180000Y-78232000D02*
X169164000Y-77216000D01*
X170180000Y-76200000D02*
X170180000Y-78232000D01*
D11*
X151130000Y-82510380D02*
X151130000Y-82748476D01*
X150891904Y-82653238D02*
X151130000Y-82748476D01*
X151368095Y-82653238D01*
X150987142Y-82938952D02*
X151130000Y-82748476D01*
X151272857Y-82938952D01*
D12*
%TO.C,U2*%
X153162000Y-89562000D02*
X155922000Y-89562000D01*
X155922000Y-89562000D02*
X155922000Y-89287000D01*
X153162000Y-89562000D02*
X150402000Y-89562000D01*
X150402000Y-89562000D02*
X150402000Y-89287000D01*
X153162000Y-82142000D02*
X155922000Y-82142000D01*
X155922000Y-82142000D02*
X155922000Y-82417000D01*
X153162000Y-82142000D02*
X150402000Y-82142000D01*
X150402000Y-82142000D02*
X150402000Y-82417000D01*
X150402000Y-82417000D02*
X148712000Y-82417000D01*
%TO.C,C3*%
X161769248Y-84609000D02*
X162291752Y-84609000D01*
X161769248Y-86079000D02*
X162291752Y-86079000D01*
%TO.C,C1*%
X134339000Y-90162748D02*
X134339000Y-90685252D01*
X132869000Y-90162748D02*
X132869000Y-90685252D01*
%TO.C,C2*%
X139981000Y-90162748D02*
X139981000Y-90685252D01*
X141451000Y-90162748D02*
X141451000Y-90685252D01*
%TO.C,C4*%
X145280748Y-81688000D02*
X145803252Y-81688000D01*
X145280748Y-83158000D02*
X145803252Y-83158000D01*
%TO.C,C5*%
X161790748Y-88111000D02*
X162313252Y-88111000D01*
X161790748Y-86641000D02*
X162313252Y-86641000D01*
%TO.C,D1*%
X151876000Y-92004000D02*
X149016000Y-92004000D01*
X149016000Y-92004000D02*
X149016000Y-93924000D01*
X149016000Y-93924000D02*
X151876000Y-93924000D01*
%TO.C,J1*%
X133635000Y-80320000D02*
G75*
G03*
X133635000Y-80320000I-1555000J0D01*
G01*
X134180000Y-85980000D02*
X134180000Y-78160000D01*
X128620000Y-85980000D02*
X128620000Y-78160000D01*
X135740000Y-85980000D02*
X135740000Y-78160000D01*
X128620000Y-85980000D02*
X135740000Y-85980000D01*
X128620000Y-78160000D02*
X135740000Y-78160000D01*
X134240000Y-86220000D02*
X135980000Y-86220000D01*
X135980000Y-86220000D02*
X135980000Y-84720000D01*
X133511385Y-83212413D02*
G75*
G02*
X133635000Y-83820000I-1431385J-607587D01*
G01*
X131472258Y-82387891D02*
G75*
G02*
X132688000Y-82388000I607742J-1432109D01*
G01*
X130647891Y-84427742D02*
G75*
G02*
X130648000Y-83212000I1432109J607742D01*
G01*
X132687742Y-85252109D02*
G75*
G02*
X131472000Y-85252000I-607742J1432109D01*
G01*
X133635492Y-83792989D02*
G75*
G02*
X133512000Y-84428000I-1555492J-27011D01*
G01*
%TO.C,J2*%
X158471000Y-76708000D02*
G75*
G03*
X158471000Y-76708000I-1555000J0D01*
G01*
X161971000Y-76708000D02*
G75*
G03*
X161971000Y-76708000I-1555000J0D01*
G01*
X165471000Y-76708000D02*
G75*
G03*
X165471000Y-76708000I-1555000J0D01*
G01*
X151256000Y-78808000D02*
X166076000Y-78808000D01*
X151256000Y-73248000D02*
X166076000Y-73248000D01*
X151256000Y-80368000D02*
X166076000Y-80368000D01*
X151256000Y-73248000D02*
X151256000Y-80368000D01*
X166076000Y-73248000D02*
X166076000Y-80368000D01*
X151016000Y-78868000D02*
X151016000Y-80608000D01*
X151016000Y-80608000D02*
X152516000Y-80608000D01*
X154023587Y-78139385D02*
G75*
G02*
X153416000Y-78263000I-607587J1431385D01*
G01*
X154848109Y-76100258D02*
G75*
G02*
X154848000Y-77316000I-1432109J-607742D01*
G01*
X152808258Y-75275891D02*
G75*
G02*
X154024000Y-75276000I607742J-1432109D01*
G01*
X151983891Y-77315742D02*
G75*
G02*
X151984000Y-76100000I1432109J607742D01*
G01*
X153443011Y-78263492D02*
G75*
G02*
X152808000Y-78140000I-27011J1555492D01*
G01*
%TO.C,J3*%
X145771000Y-76708000D02*
G75*
G03*
X145771000Y-76708000I-1555000J0D01*
G01*
X149271000Y-76708000D02*
G75*
G03*
X149271000Y-76708000I-1555000J0D01*
G01*
X138556000Y-78808000D02*
X149876000Y-78808000D01*
X138556000Y-73248000D02*
X149876000Y-73248000D01*
X138556000Y-80368000D02*
X149876000Y-80368000D01*
X138556000Y-73248000D02*
X138556000Y-80368000D01*
X149876000Y-73248000D02*
X149876000Y-80368000D01*
X138316000Y-78868000D02*
X138316000Y-80608000D01*
X138316000Y-80608000D02*
X139816000Y-80608000D01*
X141323587Y-78139385D02*
G75*
G02*
X140716000Y-78263000I-607587J1431385D01*
G01*
X142148109Y-76100258D02*
G75*
G02*
X142148000Y-77316000I-1432109J-607742D01*
G01*
X140108258Y-75275891D02*
G75*
G02*
X141324000Y-75276000I607742J-1432109D01*
G01*
X139283891Y-77315742D02*
G75*
G02*
X139284000Y-76100000I1432109J607742D01*
G01*
X140743011Y-78263492D02*
G75*
G02*
X140108000Y-78140000I-27011J1555492D01*
G01*
%TO.C,J4*%
X170628000Y-88960000D02*
X173288000Y-88960000D01*
X170628000Y-78740000D02*
X170628000Y-88960000D01*
X173288000Y-78740000D02*
X173288000Y-88960000D01*
X170628000Y-78740000D02*
X173288000Y-78740000D01*
X170628000Y-77470000D02*
X170628000Y-76140000D01*
X170628000Y-76140000D02*
X171958000Y-76140000D01*
%TO.C,R1*%
X145314936Y-89381000D02*
X145769064Y-89381000D01*
X145314936Y-87911000D02*
X145769064Y-87911000D01*
%TO.C,R2*%
X162279064Y-90143000D02*
X161824936Y-90143000D01*
X162279064Y-88673000D02*
X161824936Y-88673000D01*
%TO.C,U1*%
X136181199Y-92755801D02*
X134871199Y-92755801D01*
X134871199Y-92755801D02*
X134871199Y-90035801D01*
X139361199Y-88895801D02*
X139361199Y-90035801D01*
X139591199Y-92755801D02*
X138281199Y-92755801D01*
X139591199Y-90035801D02*
X139591199Y-92755801D01*
X139591199Y-90035801D02*
X139361199Y-90035801D01*
X134871199Y-90035801D02*
X135101199Y-90035801D01*
%TO.C,Y2*%
X146742000Y-83671000D02*
X146742000Y-84471000D01*
X144342000Y-83671000D02*
X146342000Y-83671000D01*
X144342000Y-84471000D02*
X144342000Y-83671000D01*
X144342000Y-87271000D02*
X144342000Y-86271000D01*
X146342000Y-87271000D02*
X144342000Y-87271000D01*
X146742000Y-86271000D02*
X146742000Y-87271000D01*
X146742000Y-86271000D02*
X147142000Y-86271000D01*
X144342000Y-87471000D02*
X146342000Y-87471000D01*
X146342000Y-83671000D02*
X146742000Y-83671000D01*
X146342000Y-87271000D02*
X146742000Y-87271000D01*
X146342000Y-87471000D02*
X146742000Y-87471000D01*
%TO.C,U2*%
D11*
X152400095Y-80754380D02*
X152400095Y-81563904D01*
X152447714Y-81659142D01*
X152495333Y-81706761D01*
X152590571Y-81754380D01*
X152781047Y-81754380D01*
X152876285Y-81706761D01*
X152923904Y-81659142D01*
X152971523Y-81563904D01*
X152971523Y-80754380D01*
X153400095Y-80849619D02*
X153447714Y-80802000D01*
X153542952Y-80754380D01*
X153781047Y-80754380D01*
X153876285Y-80802000D01*
X153923904Y-80849619D01*
X153971523Y-80944857D01*
X153971523Y-81040095D01*
X153923904Y-81182952D01*
X153352476Y-81754380D01*
X153971523Y-81754380D01*
%TO.C,C3*%
X164679333Y-86717142D02*
X164631714Y-86764761D01*
X164488857Y-86812380D01*
X164393619Y-86812380D01*
X164250761Y-86764761D01*
X164155523Y-86669523D01*
X164107904Y-86574285D01*
X164060285Y-86383809D01*
X164060285Y-86240952D01*
X164107904Y-86050476D01*
X164155523Y-85955238D01*
X164250761Y-85860000D01*
X164393619Y-85812380D01*
X164488857Y-85812380D01*
X164631714Y-85860000D01*
X164679333Y-85907619D01*
X165012666Y-85812380D02*
X165631714Y-85812380D01*
X165298380Y-86193333D01*
X165441238Y-86193333D01*
X165536476Y-86240952D01*
X165584095Y-86288571D01*
X165631714Y-86383809D01*
X165631714Y-86621904D01*
X165584095Y-86717142D01*
X165536476Y-86764761D01*
X165441238Y-86812380D01*
X165155523Y-86812380D01*
X165060285Y-86764761D01*
X165012666Y-86717142D01*
%TO.C,C1*%
X133437333Y-93575142D02*
X133389714Y-93622761D01*
X133246857Y-93670380D01*
X133151619Y-93670380D01*
X133008761Y-93622761D01*
X132913523Y-93527523D01*
X132865904Y-93432285D01*
X132818285Y-93241809D01*
X132818285Y-93098952D01*
X132865904Y-92908476D01*
X132913523Y-92813238D01*
X133008761Y-92718000D01*
X133151619Y-92670380D01*
X133246857Y-92670380D01*
X133389714Y-92718000D01*
X133437333Y-92765619D01*
X134389714Y-93670380D02*
X133818285Y-93670380D01*
X134104000Y-93670380D02*
X134104000Y-92670380D01*
X134008761Y-92813238D01*
X133913523Y-92908476D01*
X133818285Y-92956095D01*
%TO.C,C2*%
X141311333Y-93829142D02*
X141263714Y-93876761D01*
X141120857Y-93924380D01*
X141025619Y-93924380D01*
X140882761Y-93876761D01*
X140787523Y-93781523D01*
X140739904Y-93686285D01*
X140692285Y-93495809D01*
X140692285Y-93352952D01*
X140739904Y-93162476D01*
X140787523Y-93067238D01*
X140882761Y-92972000D01*
X141025619Y-92924380D01*
X141120857Y-92924380D01*
X141263714Y-92972000D01*
X141311333Y-93019619D01*
X141692285Y-93019619D02*
X141739904Y-92972000D01*
X141835142Y-92924380D01*
X142073238Y-92924380D01*
X142168476Y-92972000D01*
X142216095Y-93019619D01*
X142263714Y-93114857D01*
X142263714Y-93210095D01*
X142216095Y-93352952D01*
X141644666Y-93924380D01*
X142263714Y-93924380D01*
%TO.C,C4*%
X142581333Y-82653142D02*
X142533714Y-82700761D01*
X142390857Y-82748380D01*
X142295619Y-82748380D01*
X142152761Y-82700761D01*
X142057523Y-82605523D01*
X142009904Y-82510285D01*
X141962285Y-82319809D01*
X141962285Y-82176952D01*
X142009904Y-81986476D01*
X142057523Y-81891238D01*
X142152761Y-81796000D01*
X142295619Y-81748380D01*
X142390857Y-81748380D01*
X142533714Y-81796000D01*
X142581333Y-81843619D01*
X143438476Y-82081714D02*
X143438476Y-82748380D01*
X143200380Y-81700761D02*
X142962285Y-82415047D01*
X143581333Y-82415047D01*
%TO.C,C5*%
X164679333Y-87987142D02*
X164631714Y-88034761D01*
X164488857Y-88082380D01*
X164393619Y-88082380D01*
X164250761Y-88034761D01*
X164155523Y-87939523D01*
X164107904Y-87844285D01*
X164060285Y-87653809D01*
X164060285Y-87510952D01*
X164107904Y-87320476D01*
X164155523Y-87225238D01*
X164250761Y-87130000D01*
X164393619Y-87082380D01*
X164488857Y-87082380D01*
X164631714Y-87130000D01*
X164679333Y-87177619D01*
X165584095Y-87082380D02*
X165107904Y-87082380D01*
X165060285Y-87558571D01*
X165107904Y-87510952D01*
X165203142Y-87463333D01*
X165441238Y-87463333D01*
X165536476Y-87510952D01*
X165584095Y-87558571D01*
X165631714Y-87653809D01*
X165631714Y-87891904D01*
X165584095Y-87987142D01*
X165536476Y-88034761D01*
X165441238Y-88082380D01*
X165203142Y-88082380D01*
X165107904Y-88034761D01*
X165060285Y-87987142D01*
%TO.C,D1*%
X150137904Y-91766380D02*
X150137904Y-90766380D01*
X150376000Y-90766380D01*
X150518857Y-90814000D01*
X150614095Y-90909238D01*
X150661714Y-91004476D01*
X150709333Y-91194952D01*
X150709333Y-91337809D01*
X150661714Y-91528285D01*
X150614095Y-91623523D01*
X150518857Y-91718761D01*
X150376000Y-91766380D01*
X150137904Y-91766380D01*
X151661714Y-91766380D02*
X151090285Y-91766380D01*
X151376000Y-91766380D02*
X151376000Y-90766380D01*
X151280761Y-90909238D01*
X151185523Y-91004476D01*
X151090285Y-91052095D01*
%TO.C,J1*%
X129206666Y-78700380D02*
X129206666Y-79414666D01*
X129159047Y-79557523D01*
X129063809Y-79652761D01*
X128920952Y-79700380D01*
X128825714Y-79700380D01*
X130206666Y-79700380D02*
X129635238Y-79700380D01*
X129920952Y-79700380D02*
X129920952Y-78700380D01*
X129825714Y-78843238D01*
X129730476Y-78938476D01*
X129635238Y-78986095D01*
%TO.C,J2*%
X152066666Y-73620380D02*
X152066666Y-74334666D01*
X152019047Y-74477523D01*
X151923809Y-74572761D01*
X151780952Y-74620380D01*
X151685714Y-74620380D01*
X152495238Y-73715619D02*
X152542857Y-73668000D01*
X152638095Y-73620380D01*
X152876190Y-73620380D01*
X152971428Y-73668000D01*
X153019047Y-73715619D01*
X153066666Y-73810857D01*
X153066666Y-73906095D01*
X153019047Y-74048952D01*
X152447619Y-74620380D01*
X153066666Y-74620380D01*
%TO.C,J3*%
X139366666Y-73620380D02*
X139366666Y-74334666D01*
X139319047Y-74477523D01*
X139223809Y-74572761D01*
X139080952Y-74620380D01*
X138985714Y-74620380D01*
X139747619Y-73620380D02*
X140366666Y-73620380D01*
X140033333Y-74001333D01*
X140176190Y-74001333D01*
X140271428Y-74048952D01*
X140319047Y-74096571D01*
X140366666Y-74191809D01*
X140366666Y-74429904D01*
X140319047Y-74525142D01*
X140271428Y-74572761D01*
X140176190Y-74620380D01*
X139890476Y-74620380D01*
X139795238Y-74572761D01*
X139747619Y-74525142D01*
%TO.C,R1*%
X142708333Y-89098380D02*
X142375000Y-88622190D01*
X142136904Y-89098380D02*
X142136904Y-88098380D01*
X142517857Y-88098380D01*
X142613095Y-88146000D01*
X142660714Y-88193619D01*
X142708333Y-88288857D01*
X142708333Y-88431714D01*
X142660714Y-88526952D01*
X142613095Y-88574571D01*
X142517857Y-88622190D01*
X142136904Y-88622190D01*
X143660714Y-89098380D02*
X143089285Y-89098380D01*
X143375000Y-89098380D02*
X143375000Y-88098380D01*
X143279761Y-88241238D01*
X143184523Y-88336476D01*
X143089285Y-88384095D01*
%TO.C,R2*%
X164679333Y-89352380D02*
X164346000Y-88876190D01*
X164107904Y-89352380D02*
X164107904Y-88352380D01*
X164488857Y-88352380D01*
X164584095Y-88400000D01*
X164631714Y-88447619D01*
X164679333Y-88542857D01*
X164679333Y-88685714D01*
X164631714Y-88780952D01*
X164584095Y-88828571D01*
X164488857Y-88876190D01*
X164107904Y-88876190D01*
X165060285Y-88447619D02*
X165107904Y-88400000D01*
X165203142Y-88352380D01*
X165441238Y-88352380D01*
X165536476Y-88400000D01*
X165584095Y-88447619D01*
X165631714Y-88542857D01*
X165631714Y-88638095D01*
X165584095Y-88780952D01*
X165012666Y-89352380D01*
X165631714Y-89352380D01*
%TO.C,U1*%
X138430095Y-92924380D02*
X138430095Y-93733904D01*
X138477714Y-93829142D01*
X138525333Y-93876761D01*
X138620571Y-93924380D01*
X138811047Y-93924380D01*
X138906285Y-93876761D01*
X138953904Y-93829142D01*
X139001523Y-93733904D01*
X139001523Y-92924380D01*
X140001523Y-93924380D02*
X139430095Y-93924380D01*
X139715809Y-93924380D02*
X139715809Y-92924380D01*
X139620571Y-93067238D01*
X139525333Y-93162476D01*
X139430095Y-93210095D01*
%TO.C,Y2*%
X142779809Y-84304190D02*
X142779809Y-84780380D01*
X142446476Y-83780380D02*
X142779809Y-84304190D01*
X143113142Y-83780380D01*
X143398857Y-83875619D02*
X143446476Y-83828000D01*
X143541714Y-83780380D01*
X143779809Y-83780380D01*
X143875047Y-83828000D01*
X143922666Y-83875619D01*
X143970285Y-83970857D01*
X143970285Y-84066095D01*
X143922666Y-84208952D01*
X143351238Y-84780380D01*
X143970285Y-84780380D01*
%TD*%
M02*
