%TF.GenerationSoftware,KiCad,Pcbnew,(5.1.9)-1*%
%TF.CreationDate,2021-07-20T15:51:08-07:00*%
%TF.ProjectId,Wie to serial,57696520-746f-4207-9365-7269616c2e6b,rev?*%
%TF.SameCoordinates,Original*%
%TF.FileFunction,Copper,L2,Bot*%
%TF.FilePolarity,Positive*%
%FSLAX46Y46*%
G04 Gerber Fmt 4.6, Leading zero omitted, Abs format (unit mm)*
G04 Created by KiCad (PCBNEW (5.1.9)-1) date 2021-07-20 15:51:08*
%MOMM*%
%LPD*%
G01*
G04 APERTURE LIST*
%TA.AperFunction,ComponentPad*%
%ADD10R,2.400000X2.400000*%
%TD*%
%TA.AperFunction,ComponentPad*%
%ADD11C,2.400000*%
%TD*%
%TA.AperFunction,ComponentPad*%
%ADD12R,1.700000X1.700000*%
%TD*%
%TA.AperFunction,ComponentPad*%
%ADD13O,1.700000X1.700000*%
%TD*%
%TA.AperFunction,ViaPad*%
%ADD14C,0.800000*%
%TD*%
%TA.AperFunction,Conductor*%
%ADD15C,0.304800*%
%TD*%
%TA.AperFunction,Conductor*%
%ADD16C,0.508000*%
%TD*%
%TA.AperFunction,Conductor*%
%ADD17C,0.254000*%
%TD*%
%TA.AperFunction,Conductor*%
%ADD18C,0.100000*%
%TD*%
G04 APERTURE END LIST*
D10*
%TO.P,J1,1*%
%TO.N,+12V*%
X132080000Y-83820000D03*
D11*
%TO.P,J1,2*%
%TO.N,GND*%
X132080000Y-80320000D03*
%TD*%
D10*
%TO.P,J2,1*%
%TO.N,+12V*%
X153416000Y-76708000D03*
D11*
%TO.P,J2,2*%
%TO.N,D0*%
X156916000Y-76708000D03*
%TO.P,J2,3*%
%TO.N,D1*%
X160416000Y-76708000D03*
%TO.P,J2,4*%
%TO.N,GND*%
X163916000Y-76708000D03*
%TD*%
D10*
%TO.P,J3,1*%
%TO.N,TXD*%
X140716000Y-76708000D03*
D11*
%TO.P,J3,2*%
%TO.N,RXD*%
X144216000Y-76708000D03*
%TO.P,J3,3*%
%TO.N,GND*%
X147716000Y-76708000D03*
%TD*%
D12*
%TO.P,J4,1*%
%TO.N,MCLR*%
X171958000Y-77470000D03*
D13*
%TO.P,J4,2*%
%TO.N,+5V*%
X171958000Y-80010000D03*
%TO.P,J4,3*%
%TO.N,GND*%
X171958000Y-82550000D03*
%TO.P,J4,4*%
%TO.N,PGD*%
X171958000Y-85090000D03*
%TO.P,J4,5*%
%TO.N,PGC*%
X171958000Y-87630000D03*
%TD*%
D14*
%TO.N,MCLR*%
X174244000Y-89916000D03*
X146558000Y-89916000D03*
%TO.N,D1*%
X159695000Y-86177000D03*
%TO.N,GND*%
X143383000Y-85471000D03*
X165100000Y-85344000D03*
X148336000Y-81788000D03*
X165100000Y-82550000D03*
%TD*%
D15*
%TO.N,MCLR*%
X174244000Y-89916000D02*
X146558000Y-89916000D01*
%TO.N,D1*%
X159695000Y-77429000D02*
X160416000Y-76708000D01*
X159695000Y-86177000D02*
X159695000Y-77429000D01*
D16*
%TO.N,GND*%
X165100000Y-85344000D02*
X165100000Y-82804000D01*
X165100000Y-82804000D02*
X165100000Y-82550000D01*
%TD*%
D17*
%TO.N,GND*%
X174340000Y-88881000D02*
X174142061Y-88881000D01*
X173942102Y-88920774D01*
X173753744Y-88998795D01*
X173584226Y-89112063D01*
X173567689Y-89128600D01*
X147234311Y-89128600D01*
X147217774Y-89112063D01*
X147048256Y-88998795D01*
X146859898Y-88920774D01*
X146659939Y-88881000D01*
X146456061Y-88881000D01*
X146256102Y-88920774D01*
X146067744Y-88998795D01*
X145898226Y-89112063D01*
X145754063Y-89256226D01*
X145640795Y-89425744D01*
X145562774Y-89614102D01*
X145523000Y-89814061D01*
X145523000Y-90017939D01*
X145562774Y-90217898D01*
X145640795Y-90406256D01*
X145754063Y-90575774D01*
X145898226Y-90719937D01*
X146067744Y-90833205D01*
X146256102Y-90911226D01*
X146456061Y-90951000D01*
X146659939Y-90951000D01*
X146859898Y-90911226D01*
X147048256Y-90833205D01*
X147217774Y-90719937D01*
X147234311Y-90703400D01*
X170313462Y-90703400D01*
X170104369Y-91016331D01*
X169935890Y-91423075D01*
X169850000Y-91854872D01*
X169850000Y-92295128D01*
X169935890Y-92726925D01*
X170104369Y-93133669D01*
X170348962Y-93499729D01*
X170660271Y-93811038D01*
X171026331Y-94055631D01*
X171433075Y-94224110D01*
X171864872Y-94310000D01*
X172305128Y-94310000D01*
X172736925Y-94224110D01*
X173143669Y-94055631D01*
X173509729Y-93811038D01*
X173821038Y-93499729D01*
X174065631Y-93133669D01*
X174234110Y-92726925D01*
X174320000Y-92295128D01*
X174320000Y-91854872D01*
X174234110Y-91423075D01*
X174065631Y-91016331D01*
X174003572Y-90923453D01*
X174142061Y-90951000D01*
X174340000Y-90951000D01*
X174340000Y-94340000D01*
X125660000Y-94340000D01*
X125660000Y-92325292D01*
X125739890Y-92726925D01*
X125908369Y-93133669D01*
X126152962Y-93499729D01*
X126464271Y-93811038D01*
X126830331Y-94055631D01*
X127237075Y-94224110D01*
X127668872Y-94310000D01*
X128109128Y-94310000D01*
X128540925Y-94224110D01*
X128947669Y-94055631D01*
X129313729Y-93811038D01*
X129625038Y-93499729D01*
X129869631Y-93133669D01*
X130038110Y-92726925D01*
X130124000Y-92295128D01*
X130124000Y-91854872D01*
X130038110Y-91423075D01*
X129869631Y-91016331D01*
X129625038Y-90650271D01*
X129313729Y-90338962D01*
X128947669Y-90094369D01*
X128540925Y-89925890D01*
X128109128Y-89840000D01*
X127668872Y-89840000D01*
X127237075Y-89925890D01*
X126830331Y-90094369D01*
X126464271Y-90338962D01*
X126152962Y-90650271D01*
X125908369Y-91016331D01*
X125739890Y-91423075D01*
X125660000Y-91824708D01*
X125660000Y-82620000D01*
X130241928Y-82620000D01*
X130241928Y-85020000D01*
X130254188Y-85144482D01*
X130290498Y-85264180D01*
X130349463Y-85374494D01*
X130428815Y-85471185D01*
X130525506Y-85550537D01*
X130635820Y-85609502D01*
X130755518Y-85645812D01*
X130880000Y-85658072D01*
X133280000Y-85658072D01*
X133404482Y-85645812D01*
X133524180Y-85609502D01*
X133634494Y-85550537D01*
X133731185Y-85471185D01*
X133810537Y-85374494D01*
X133869502Y-85264180D01*
X133905812Y-85144482D01*
X133918072Y-85020000D01*
X133918072Y-82620000D01*
X133905812Y-82495518D01*
X133869502Y-82375820D01*
X133810537Y-82265506D01*
X133731185Y-82168815D01*
X133634494Y-82089463D01*
X133524180Y-82030498D01*
X133404482Y-81994188D01*
X133280000Y-81981928D01*
X132873097Y-81981928D01*
X133058486Y-81882836D01*
X133178374Y-81597980D01*
X132080000Y-80499605D01*
X130981626Y-81597980D01*
X131101514Y-81882836D01*
X131300912Y-81981928D01*
X130880000Y-81981928D01*
X130755518Y-81994188D01*
X130635820Y-82030498D01*
X130525506Y-82089463D01*
X130428815Y-82168815D01*
X130349463Y-82265506D01*
X130290498Y-82375820D01*
X130254188Y-82495518D01*
X130241928Y-82620000D01*
X125660000Y-82620000D01*
X125660000Y-80374684D01*
X130236933Y-80374684D01*
X130283015Y-80733198D01*
X130398154Y-81075833D01*
X130517164Y-81298486D01*
X130802020Y-81418374D01*
X131900395Y-80320000D01*
X132259605Y-80320000D01*
X133357980Y-81418374D01*
X133642836Y-81298486D01*
X133803699Y-80974790D01*
X133898322Y-80625931D01*
X133923067Y-80265316D01*
X133876985Y-79906802D01*
X133761846Y-79564167D01*
X133642836Y-79341514D01*
X133357980Y-79221626D01*
X132259605Y-80320000D01*
X131900395Y-80320000D01*
X130802020Y-79221626D01*
X130517164Y-79341514D01*
X130356301Y-79665210D01*
X130261678Y-80014069D01*
X130236933Y-80374684D01*
X125660000Y-80374684D01*
X125660000Y-79042020D01*
X130981626Y-79042020D01*
X132080000Y-80140395D01*
X133178374Y-79042020D01*
X133058486Y-78757164D01*
X132734790Y-78596301D01*
X132385931Y-78501678D01*
X132025316Y-78476933D01*
X131666802Y-78523015D01*
X131324167Y-78638154D01*
X131101514Y-78757164D01*
X130981626Y-79042020D01*
X125660000Y-79042020D01*
X125660000Y-75508000D01*
X138877928Y-75508000D01*
X138877928Y-77908000D01*
X138890188Y-78032482D01*
X138926498Y-78152180D01*
X138985463Y-78262494D01*
X139064815Y-78359185D01*
X139161506Y-78438537D01*
X139271820Y-78497502D01*
X139391518Y-78533812D01*
X139516000Y-78546072D01*
X141916000Y-78546072D01*
X142040482Y-78533812D01*
X142160180Y-78497502D01*
X142270494Y-78438537D01*
X142367185Y-78359185D01*
X142446537Y-78262494D01*
X142505502Y-78152180D01*
X142541812Y-78032482D01*
X142554072Y-77908000D01*
X142554072Y-77490838D01*
X142589844Y-77577199D01*
X142790662Y-77877744D01*
X143046256Y-78133338D01*
X143346801Y-78334156D01*
X143680750Y-78472482D01*
X144035268Y-78543000D01*
X144396732Y-78543000D01*
X144751250Y-78472482D01*
X145085199Y-78334156D01*
X145385744Y-78133338D01*
X145533102Y-77985980D01*
X146617626Y-77985980D01*
X146737514Y-78270836D01*
X147061210Y-78431699D01*
X147410069Y-78526322D01*
X147770684Y-78551067D01*
X148129198Y-78504985D01*
X148471833Y-78389846D01*
X148694486Y-78270836D01*
X148814374Y-77985980D01*
X147716000Y-76887605D01*
X146617626Y-77985980D01*
X145533102Y-77985980D01*
X145641338Y-77877744D01*
X145842156Y-77577199D01*
X145969190Y-77270511D01*
X146034154Y-77463833D01*
X146153164Y-77686486D01*
X146438020Y-77806374D01*
X147536395Y-76708000D01*
X147895605Y-76708000D01*
X148993980Y-77806374D01*
X149278836Y-77686486D01*
X149439699Y-77362790D01*
X149534322Y-77013931D01*
X149559067Y-76653316D01*
X149512985Y-76294802D01*
X149397846Y-75952167D01*
X149278836Y-75729514D01*
X148993980Y-75609626D01*
X147895605Y-76708000D01*
X147536395Y-76708000D01*
X146438020Y-75609626D01*
X146153164Y-75729514D01*
X145992301Y-76053210D01*
X145968031Y-76142690D01*
X145842156Y-75838801D01*
X145641338Y-75538256D01*
X145533102Y-75430020D01*
X146617626Y-75430020D01*
X147716000Y-76528395D01*
X148736394Y-75508000D01*
X151577928Y-75508000D01*
X151577928Y-77908000D01*
X151590188Y-78032482D01*
X151626498Y-78152180D01*
X151685463Y-78262494D01*
X151764815Y-78359185D01*
X151861506Y-78438537D01*
X151971820Y-78497502D01*
X152091518Y-78533812D01*
X152216000Y-78546072D01*
X154616000Y-78546072D01*
X154740482Y-78533812D01*
X154860180Y-78497502D01*
X154970494Y-78438537D01*
X155067185Y-78359185D01*
X155146537Y-78262494D01*
X155205502Y-78152180D01*
X155241812Y-78032482D01*
X155254072Y-77908000D01*
X155254072Y-77490838D01*
X155289844Y-77577199D01*
X155490662Y-77877744D01*
X155746256Y-78133338D01*
X156046801Y-78334156D01*
X156380750Y-78472482D01*
X156735268Y-78543000D01*
X157096732Y-78543000D01*
X157451250Y-78472482D01*
X157785199Y-78334156D01*
X158085744Y-78133338D01*
X158341338Y-77877744D01*
X158542156Y-77577199D01*
X158666000Y-77278213D01*
X158789844Y-77577199D01*
X158907601Y-77753435D01*
X158907600Y-85500689D01*
X158891063Y-85517226D01*
X158777795Y-85686744D01*
X158699774Y-85875102D01*
X158660000Y-86075061D01*
X158660000Y-86278939D01*
X158699774Y-86478898D01*
X158777795Y-86667256D01*
X158891063Y-86836774D01*
X159035226Y-86980937D01*
X159204744Y-87094205D01*
X159393102Y-87172226D01*
X159593061Y-87212000D01*
X159796939Y-87212000D01*
X159996898Y-87172226D01*
X160185256Y-87094205D01*
X160354774Y-86980937D01*
X160498937Y-86836774D01*
X160612205Y-86667256D01*
X160690226Y-86478898D01*
X160730000Y-86278939D01*
X160730000Y-86075061D01*
X160690226Y-85875102D01*
X160612205Y-85686744D01*
X160498937Y-85517226D01*
X160482400Y-85500689D01*
X160482400Y-84943740D01*
X170473000Y-84943740D01*
X170473000Y-85236260D01*
X170530068Y-85523158D01*
X170642010Y-85793411D01*
X170804525Y-86036632D01*
X171011368Y-86243475D01*
X171185760Y-86360000D01*
X171011368Y-86476525D01*
X170804525Y-86683368D01*
X170642010Y-86926589D01*
X170530068Y-87196842D01*
X170473000Y-87483740D01*
X170473000Y-87776260D01*
X170530068Y-88063158D01*
X170642010Y-88333411D01*
X170804525Y-88576632D01*
X171011368Y-88783475D01*
X171254589Y-88945990D01*
X171524842Y-89057932D01*
X171811740Y-89115000D01*
X172104260Y-89115000D01*
X172391158Y-89057932D01*
X172661411Y-88945990D01*
X172904632Y-88783475D01*
X173111475Y-88576632D01*
X173273990Y-88333411D01*
X173385932Y-88063158D01*
X173443000Y-87776260D01*
X173443000Y-87483740D01*
X173385932Y-87196842D01*
X173273990Y-86926589D01*
X173111475Y-86683368D01*
X172904632Y-86476525D01*
X172730240Y-86360000D01*
X172904632Y-86243475D01*
X173111475Y-86036632D01*
X173273990Y-85793411D01*
X173385932Y-85523158D01*
X173443000Y-85236260D01*
X173443000Y-84943740D01*
X173385932Y-84656842D01*
X173273990Y-84386589D01*
X173111475Y-84143368D01*
X172904632Y-83936525D01*
X172722466Y-83814805D01*
X172839355Y-83745178D01*
X173055588Y-83550269D01*
X173229641Y-83316920D01*
X173354825Y-83054099D01*
X173399476Y-82906890D01*
X173278155Y-82677000D01*
X172085000Y-82677000D01*
X172085000Y-82697000D01*
X171831000Y-82697000D01*
X171831000Y-82677000D01*
X170637845Y-82677000D01*
X170516524Y-82906890D01*
X170561175Y-83054099D01*
X170686359Y-83316920D01*
X170860412Y-83550269D01*
X171076645Y-83745178D01*
X171193534Y-83814805D01*
X171011368Y-83936525D01*
X170804525Y-84143368D01*
X170642010Y-84386589D01*
X170530068Y-84656842D01*
X170473000Y-84943740D01*
X160482400Y-84943740D01*
X160482400Y-78543000D01*
X160596732Y-78543000D01*
X160951250Y-78472482D01*
X161285199Y-78334156D01*
X161585744Y-78133338D01*
X161733102Y-77985980D01*
X162817626Y-77985980D01*
X162937514Y-78270836D01*
X163261210Y-78431699D01*
X163610069Y-78526322D01*
X163970684Y-78551067D01*
X164329198Y-78504985D01*
X164671833Y-78389846D01*
X164894486Y-78270836D01*
X165014374Y-77985980D01*
X163916000Y-76887605D01*
X162817626Y-77985980D01*
X161733102Y-77985980D01*
X161841338Y-77877744D01*
X162042156Y-77577199D01*
X162169190Y-77270511D01*
X162234154Y-77463833D01*
X162353164Y-77686486D01*
X162638020Y-77806374D01*
X163736395Y-76708000D01*
X164095605Y-76708000D01*
X165193980Y-77806374D01*
X165478836Y-77686486D01*
X165639699Y-77362790D01*
X165734322Y-77013931D01*
X165759067Y-76653316D01*
X165754785Y-76620000D01*
X170469928Y-76620000D01*
X170469928Y-78320000D01*
X170482188Y-78444482D01*
X170518498Y-78564180D01*
X170577463Y-78674494D01*
X170656815Y-78771185D01*
X170753506Y-78850537D01*
X170863820Y-78909502D01*
X170936380Y-78931513D01*
X170804525Y-79063368D01*
X170642010Y-79306589D01*
X170530068Y-79576842D01*
X170473000Y-79863740D01*
X170473000Y-80156260D01*
X170530068Y-80443158D01*
X170642010Y-80713411D01*
X170804525Y-80956632D01*
X171011368Y-81163475D01*
X171193534Y-81285195D01*
X171076645Y-81354822D01*
X170860412Y-81549731D01*
X170686359Y-81783080D01*
X170561175Y-82045901D01*
X170516524Y-82193110D01*
X170637845Y-82423000D01*
X171831000Y-82423000D01*
X171831000Y-82403000D01*
X172085000Y-82403000D01*
X172085000Y-82423000D01*
X173278155Y-82423000D01*
X173399476Y-82193110D01*
X173354825Y-82045901D01*
X173229641Y-81783080D01*
X173055588Y-81549731D01*
X172839355Y-81354822D01*
X172722466Y-81285195D01*
X172904632Y-81163475D01*
X173111475Y-80956632D01*
X173273990Y-80713411D01*
X173385932Y-80443158D01*
X173443000Y-80156260D01*
X173443000Y-79863740D01*
X173385932Y-79576842D01*
X173273990Y-79306589D01*
X173111475Y-79063368D01*
X172979620Y-78931513D01*
X173052180Y-78909502D01*
X173162494Y-78850537D01*
X173259185Y-78771185D01*
X173338537Y-78674494D01*
X173397502Y-78564180D01*
X173433812Y-78444482D01*
X173446072Y-78320000D01*
X173446072Y-76620000D01*
X173433812Y-76495518D01*
X173397502Y-76375820D01*
X173338537Y-76265506D01*
X173259185Y-76168815D01*
X173162494Y-76089463D01*
X173052180Y-76030498D01*
X172932482Y-75994188D01*
X172808000Y-75981928D01*
X171108000Y-75981928D01*
X170983518Y-75994188D01*
X170863820Y-76030498D01*
X170753506Y-76089463D01*
X170656815Y-76168815D01*
X170577463Y-76265506D01*
X170518498Y-76375820D01*
X170482188Y-76495518D01*
X170469928Y-76620000D01*
X165754785Y-76620000D01*
X165712985Y-76294802D01*
X165597846Y-75952167D01*
X165478836Y-75729514D01*
X165193980Y-75609626D01*
X164095605Y-76708000D01*
X163736395Y-76708000D01*
X162638020Y-75609626D01*
X162353164Y-75729514D01*
X162192301Y-76053210D01*
X162168031Y-76142690D01*
X162042156Y-75838801D01*
X161841338Y-75538256D01*
X161733102Y-75430020D01*
X162817626Y-75430020D01*
X163916000Y-76528395D01*
X165014374Y-75430020D01*
X164894486Y-75145164D01*
X164570790Y-74984301D01*
X164221931Y-74889678D01*
X163861316Y-74864933D01*
X163502802Y-74911015D01*
X163160167Y-75026154D01*
X162937514Y-75145164D01*
X162817626Y-75430020D01*
X161733102Y-75430020D01*
X161585744Y-75282662D01*
X161285199Y-75081844D01*
X160951250Y-74943518D01*
X160596732Y-74873000D01*
X160235268Y-74873000D01*
X159880750Y-74943518D01*
X159546801Y-75081844D01*
X159246256Y-75282662D01*
X158990662Y-75538256D01*
X158789844Y-75838801D01*
X158666000Y-76137787D01*
X158542156Y-75838801D01*
X158341338Y-75538256D01*
X158085744Y-75282662D01*
X157785199Y-75081844D01*
X157451250Y-74943518D01*
X157096732Y-74873000D01*
X156735268Y-74873000D01*
X156380750Y-74943518D01*
X156046801Y-75081844D01*
X155746256Y-75282662D01*
X155490662Y-75538256D01*
X155289844Y-75838801D01*
X155254072Y-75925162D01*
X155254072Y-75508000D01*
X155241812Y-75383518D01*
X155205502Y-75263820D01*
X155146537Y-75153506D01*
X155067185Y-75056815D01*
X154970494Y-74977463D01*
X154860180Y-74918498D01*
X154740482Y-74882188D01*
X154616000Y-74869928D01*
X152216000Y-74869928D01*
X152091518Y-74882188D01*
X151971820Y-74918498D01*
X151861506Y-74977463D01*
X151764815Y-75056815D01*
X151685463Y-75153506D01*
X151626498Y-75263820D01*
X151590188Y-75383518D01*
X151577928Y-75508000D01*
X148736394Y-75508000D01*
X148814374Y-75430020D01*
X148694486Y-75145164D01*
X148370790Y-74984301D01*
X148021931Y-74889678D01*
X147661316Y-74864933D01*
X147302802Y-74911015D01*
X146960167Y-75026154D01*
X146737514Y-75145164D01*
X146617626Y-75430020D01*
X145533102Y-75430020D01*
X145385744Y-75282662D01*
X145085199Y-75081844D01*
X144751250Y-74943518D01*
X144396732Y-74873000D01*
X144035268Y-74873000D01*
X143680750Y-74943518D01*
X143346801Y-75081844D01*
X143046256Y-75282662D01*
X142790662Y-75538256D01*
X142589844Y-75838801D01*
X142554072Y-75925162D01*
X142554072Y-75508000D01*
X142541812Y-75383518D01*
X142505502Y-75263820D01*
X142446537Y-75153506D01*
X142367185Y-75056815D01*
X142270494Y-74977463D01*
X142160180Y-74918498D01*
X142040482Y-74882188D01*
X141916000Y-74869928D01*
X139516000Y-74869928D01*
X139391518Y-74882188D01*
X139271820Y-74918498D01*
X139161506Y-74977463D01*
X139064815Y-75056815D01*
X138985463Y-75153506D01*
X138926498Y-75263820D01*
X138890188Y-75383518D01*
X138877928Y-75508000D01*
X125660000Y-75508000D01*
X125660000Y-73148292D01*
X125739890Y-73549925D01*
X125908369Y-73956669D01*
X126152962Y-74322729D01*
X126464271Y-74634038D01*
X126830331Y-74878631D01*
X127237075Y-75047110D01*
X127668872Y-75133000D01*
X128109128Y-75133000D01*
X128540925Y-75047110D01*
X128947669Y-74878631D01*
X129313729Y-74634038D01*
X129625038Y-74322729D01*
X129869631Y-73956669D01*
X130038110Y-73549925D01*
X130124000Y-73118128D01*
X130124000Y-72677872D01*
X169850000Y-72677872D01*
X169850000Y-73118128D01*
X169935890Y-73549925D01*
X170104369Y-73956669D01*
X170348962Y-74322729D01*
X170660271Y-74634038D01*
X171026331Y-74878631D01*
X171433075Y-75047110D01*
X171864872Y-75133000D01*
X172305128Y-75133000D01*
X172736925Y-75047110D01*
X173143669Y-74878631D01*
X173509729Y-74634038D01*
X173821038Y-74322729D01*
X174065631Y-73956669D01*
X174234110Y-73549925D01*
X174320000Y-73118128D01*
X174320000Y-72677872D01*
X174234110Y-72246075D01*
X174065631Y-71839331D01*
X173821038Y-71473271D01*
X173509729Y-71161962D01*
X173143669Y-70917369D01*
X172736925Y-70748890D01*
X172305128Y-70663000D01*
X171864872Y-70663000D01*
X171433075Y-70748890D01*
X171026331Y-70917369D01*
X170660271Y-71161962D01*
X170348962Y-71473271D01*
X170104369Y-71839331D01*
X169935890Y-72246075D01*
X169850000Y-72677872D01*
X130124000Y-72677872D01*
X130038110Y-72246075D01*
X129869631Y-71839331D01*
X129625038Y-71473271D01*
X129313729Y-71161962D01*
X128947669Y-70917369D01*
X128540925Y-70748890D01*
X128109128Y-70663000D01*
X127668872Y-70663000D01*
X127237075Y-70748890D01*
X126830331Y-70917369D01*
X126464271Y-71161962D01*
X126152962Y-71473271D01*
X125908369Y-71839331D01*
X125739890Y-72246075D01*
X125660000Y-72647708D01*
X125660000Y-70660000D01*
X174340001Y-70660000D01*
X174340000Y-88881000D01*
%TA.AperFunction,Conductor*%
D18*
G36*
X174340000Y-88881000D02*
G01*
X174142061Y-88881000D01*
X173942102Y-88920774D01*
X173753744Y-88998795D01*
X173584226Y-89112063D01*
X173567689Y-89128600D01*
X147234311Y-89128600D01*
X147217774Y-89112063D01*
X147048256Y-88998795D01*
X146859898Y-88920774D01*
X146659939Y-88881000D01*
X146456061Y-88881000D01*
X146256102Y-88920774D01*
X146067744Y-88998795D01*
X145898226Y-89112063D01*
X145754063Y-89256226D01*
X145640795Y-89425744D01*
X145562774Y-89614102D01*
X145523000Y-89814061D01*
X145523000Y-90017939D01*
X145562774Y-90217898D01*
X145640795Y-90406256D01*
X145754063Y-90575774D01*
X145898226Y-90719937D01*
X146067744Y-90833205D01*
X146256102Y-90911226D01*
X146456061Y-90951000D01*
X146659939Y-90951000D01*
X146859898Y-90911226D01*
X147048256Y-90833205D01*
X147217774Y-90719937D01*
X147234311Y-90703400D01*
X170313462Y-90703400D01*
X170104369Y-91016331D01*
X169935890Y-91423075D01*
X169850000Y-91854872D01*
X169850000Y-92295128D01*
X169935890Y-92726925D01*
X170104369Y-93133669D01*
X170348962Y-93499729D01*
X170660271Y-93811038D01*
X171026331Y-94055631D01*
X171433075Y-94224110D01*
X171864872Y-94310000D01*
X172305128Y-94310000D01*
X172736925Y-94224110D01*
X173143669Y-94055631D01*
X173509729Y-93811038D01*
X173821038Y-93499729D01*
X174065631Y-93133669D01*
X174234110Y-92726925D01*
X174320000Y-92295128D01*
X174320000Y-91854872D01*
X174234110Y-91423075D01*
X174065631Y-91016331D01*
X174003572Y-90923453D01*
X174142061Y-90951000D01*
X174340000Y-90951000D01*
X174340000Y-94340000D01*
X125660000Y-94340000D01*
X125660000Y-92325292D01*
X125739890Y-92726925D01*
X125908369Y-93133669D01*
X126152962Y-93499729D01*
X126464271Y-93811038D01*
X126830331Y-94055631D01*
X127237075Y-94224110D01*
X127668872Y-94310000D01*
X128109128Y-94310000D01*
X128540925Y-94224110D01*
X128947669Y-94055631D01*
X129313729Y-93811038D01*
X129625038Y-93499729D01*
X129869631Y-93133669D01*
X130038110Y-92726925D01*
X130124000Y-92295128D01*
X130124000Y-91854872D01*
X130038110Y-91423075D01*
X129869631Y-91016331D01*
X129625038Y-90650271D01*
X129313729Y-90338962D01*
X128947669Y-90094369D01*
X128540925Y-89925890D01*
X128109128Y-89840000D01*
X127668872Y-89840000D01*
X127237075Y-89925890D01*
X126830331Y-90094369D01*
X126464271Y-90338962D01*
X126152962Y-90650271D01*
X125908369Y-91016331D01*
X125739890Y-91423075D01*
X125660000Y-91824708D01*
X125660000Y-82620000D01*
X130241928Y-82620000D01*
X130241928Y-85020000D01*
X130254188Y-85144482D01*
X130290498Y-85264180D01*
X130349463Y-85374494D01*
X130428815Y-85471185D01*
X130525506Y-85550537D01*
X130635820Y-85609502D01*
X130755518Y-85645812D01*
X130880000Y-85658072D01*
X133280000Y-85658072D01*
X133404482Y-85645812D01*
X133524180Y-85609502D01*
X133634494Y-85550537D01*
X133731185Y-85471185D01*
X133810537Y-85374494D01*
X133869502Y-85264180D01*
X133905812Y-85144482D01*
X133918072Y-85020000D01*
X133918072Y-82620000D01*
X133905812Y-82495518D01*
X133869502Y-82375820D01*
X133810537Y-82265506D01*
X133731185Y-82168815D01*
X133634494Y-82089463D01*
X133524180Y-82030498D01*
X133404482Y-81994188D01*
X133280000Y-81981928D01*
X132873097Y-81981928D01*
X133058486Y-81882836D01*
X133178374Y-81597980D01*
X132080000Y-80499605D01*
X130981626Y-81597980D01*
X131101514Y-81882836D01*
X131300912Y-81981928D01*
X130880000Y-81981928D01*
X130755518Y-81994188D01*
X130635820Y-82030498D01*
X130525506Y-82089463D01*
X130428815Y-82168815D01*
X130349463Y-82265506D01*
X130290498Y-82375820D01*
X130254188Y-82495518D01*
X130241928Y-82620000D01*
X125660000Y-82620000D01*
X125660000Y-80374684D01*
X130236933Y-80374684D01*
X130283015Y-80733198D01*
X130398154Y-81075833D01*
X130517164Y-81298486D01*
X130802020Y-81418374D01*
X131900395Y-80320000D01*
X132259605Y-80320000D01*
X133357980Y-81418374D01*
X133642836Y-81298486D01*
X133803699Y-80974790D01*
X133898322Y-80625931D01*
X133923067Y-80265316D01*
X133876985Y-79906802D01*
X133761846Y-79564167D01*
X133642836Y-79341514D01*
X133357980Y-79221626D01*
X132259605Y-80320000D01*
X131900395Y-80320000D01*
X130802020Y-79221626D01*
X130517164Y-79341514D01*
X130356301Y-79665210D01*
X130261678Y-80014069D01*
X130236933Y-80374684D01*
X125660000Y-80374684D01*
X125660000Y-79042020D01*
X130981626Y-79042020D01*
X132080000Y-80140395D01*
X133178374Y-79042020D01*
X133058486Y-78757164D01*
X132734790Y-78596301D01*
X132385931Y-78501678D01*
X132025316Y-78476933D01*
X131666802Y-78523015D01*
X131324167Y-78638154D01*
X131101514Y-78757164D01*
X130981626Y-79042020D01*
X125660000Y-79042020D01*
X125660000Y-75508000D01*
X138877928Y-75508000D01*
X138877928Y-77908000D01*
X138890188Y-78032482D01*
X138926498Y-78152180D01*
X138985463Y-78262494D01*
X139064815Y-78359185D01*
X139161506Y-78438537D01*
X139271820Y-78497502D01*
X139391518Y-78533812D01*
X139516000Y-78546072D01*
X141916000Y-78546072D01*
X142040482Y-78533812D01*
X142160180Y-78497502D01*
X142270494Y-78438537D01*
X142367185Y-78359185D01*
X142446537Y-78262494D01*
X142505502Y-78152180D01*
X142541812Y-78032482D01*
X142554072Y-77908000D01*
X142554072Y-77490838D01*
X142589844Y-77577199D01*
X142790662Y-77877744D01*
X143046256Y-78133338D01*
X143346801Y-78334156D01*
X143680750Y-78472482D01*
X144035268Y-78543000D01*
X144396732Y-78543000D01*
X144751250Y-78472482D01*
X145085199Y-78334156D01*
X145385744Y-78133338D01*
X145533102Y-77985980D01*
X146617626Y-77985980D01*
X146737514Y-78270836D01*
X147061210Y-78431699D01*
X147410069Y-78526322D01*
X147770684Y-78551067D01*
X148129198Y-78504985D01*
X148471833Y-78389846D01*
X148694486Y-78270836D01*
X148814374Y-77985980D01*
X147716000Y-76887605D01*
X146617626Y-77985980D01*
X145533102Y-77985980D01*
X145641338Y-77877744D01*
X145842156Y-77577199D01*
X145969190Y-77270511D01*
X146034154Y-77463833D01*
X146153164Y-77686486D01*
X146438020Y-77806374D01*
X147536395Y-76708000D01*
X147895605Y-76708000D01*
X148993980Y-77806374D01*
X149278836Y-77686486D01*
X149439699Y-77362790D01*
X149534322Y-77013931D01*
X149559067Y-76653316D01*
X149512985Y-76294802D01*
X149397846Y-75952167D01*
X149278836Y-75729514D01*
X148993980Y-75609626D01*
X147895605Y-76708000D01*
X147536395Y-76708000D01*
X146438020Y-75609626D01*
X146153164Y-75729514D01*
X145992301Y-76053210D01*
X145968031Y-76142690D01*
X145842156Y-75838801D01*
X145641338Y-75538256D01*
X145533102Y-75430020D01*
X146617626Y-75430020D01*
X147716000Y-76528395D01*
X148736394Y-75508000D01*
X151577928Y-75508000D01*
X151577928Y-77908000D01*
X151590188Y-78032482D01*
X151626498Y-78152180D01*
X151685463Y-78262494D01*
X151764815Y-78359185D01*
X151861506Y-78438537D01*
X151971820Y-78497502D01*
X152091518Y-78533812D01*
X152216000Y-78546072D01*
X154616000Y-78546072D01*
X154740482Y-78533812D01*
X154860180Y-78497502D01*
X154970494Y-78438537D01*
X155067185Y-78359185D01*
X155146537Y-78262494D01*
X155205502Y-78152180D01*
X155241812Y-78032482D01*
X155254072Y-77908000D01*
X155254072Y-77490838D01*
X155289844Y-77577199D01*
X155490662Y-77877744D01*
X155746256Y-78133338D01*
X156046801Y-78334156D01*
X156380750Y-78472482D01*
X156735268Y-78543000D01*
X157096732Y-78543000D01*
X157451250Y-78472482D01*
X157785199Y-78334156D01*
X158085744Y-78133338D01*
X158341338Y-77877744D01*
X158542156Y-77577199D01*
X158666000Y-77278213D01*
X158789844Y-77577199D01*
X158907601Y-77753435D01*
X158907600Y-85500689D01*
X158891063Y-85517226D01*
X158777795Y-85686744D01*
X158699774Y-85875102D01*
X158660000Y-86075061D01*
X158660000Y-86278939D01*
X158699774Y-86478898D01*
X158777795Y-86667256D01*
X158891063Y-86836774D01*
X159035226Y-86980937D01*
X159204744Y-87094205D01*
X159393102Y-87172226D01*
X159593061Y-87212000D01*
X159796939Y-87212000D01*
X159996898Y-87172226D01*
X160185256Y-87094205D01*
X160354774Y-86980937D01*
X160498937Y-86836774D01*
X160612205Y-86667256D01*
X160690226Y-86478898D01*
X160730000Y-86278939D01*
X160730000Y-86075061D01*
X160690226Y-85875102D01*
X160612205Y-85686744D01*
X160498937Y-85517226D01*
X160482400Y-85500689D01*
X160482400Y-84943740D01*
X170473000Y-84943740D01*
X170473000Y-85236260D01*
X170530068Y-85523158D01*
X170642010Y-85793411D01*
X170804525Y-86036632D01*
X171011368Y-86243475D01*
X171185760Y-86360000D01*
X171011368Y-86476525D01*
X170804525Y-86683368D01*
X170642010Y-86926589D01*
X170530068Y-87196842D01*
X170473000Y-87483740D01*
X170473000Y-87776260D01*
X170530068Y-88063158D01*
X170642010Y-88333411D01*
X170804525Y-88576632D01*
X171011368Y-88783475D01*
X171254589Y-88945990D01*
X171524842Y-89057932D01*
X171811740Y-89115000D01*
X172104260Y-89115000D01*
X172391158Y-89057932D01*
X172661411Y-88945990D01*
X172904632Y-88783475D01*
X173111475Y-88576632D01*
X173273990Y-88333411D01*
X173385932Y-88063158D01*
X173443000Y-87776260D01*
X173443000Y-87483740D01*
X173385932Y-87196842D01*
X173273990Y-86926589D01*
X173111475Y-86683368D01*
X172904632Y-86476525D01*
X172730240Y-86360000D01*
X172904632Y-86243475D01*
X173111475Y-86036632D01*
X173273990Y-85793411D01*
X173385932Y-85523158D01*
X173443000Y-85236260D01*
X173443000Y-84943740D01*
X173385932Y-84656842D01*
X173273990Y-84386589D01*
X173111475Y-84143368D01*
X172904632Y-83936525D01*
X172722466Y-83814805D01*
X172839355Y-83745178D01*
X173055588Y-83550269D01*
X173229641Y-83316920D01*
X173354825Y-83054099D01*
X173399476Y-82906890D01*
X173278155Y-82677000D01*
X172085000Y-82677000D01*
X172085000Y-82697000D01*
X171831000Y-82697000D01*
X171831000Y-82677000D01*
X170637845Y-82677000D01*
X170516524Y-82906890D01*
X170561175Y-83054099D01*
X170686359Y-83316920D01*
X170860412Y-83550269D01*
X171076645Y-83745178D01*
X171193534Y-83814805D01*
X171011368Y-83936525D01*
X170804525Y-84143368D01*
X170642010Y-84386589D01*
X170530068Y-84656842D01*
X170473000Y-84943740D01*
X160482400Y-84943740D01*
X160482400Y-78543000D01*
X160596732Y-78543000D01*
X160951250Y-78472482D01*
X161285199Y-78334156D01*
X161585744Y-78133338D01*
X161733102Y-77985980D01*
X162817626Y-77985980D01*
X162937514Y-78270836D01*
X163261210Y-78431699D01*
X163610069Y-78526322D01*
X163970684Y-78551067D01*
X164329198Y-78504985D01*
X164671833Y-78389846D01*
X164894486Y-78270836D01*
X165014374Y-77985980D01*
X163916000Y-76887605D01*
X162817626Y-77985980D01*
X161733102Y-77985980D01*
X161841338Y-77877744D01*
X162042156Y-77577199D01*
X162169190Y-77270511D01*
X162234154Y-77463833D01*
X162353164Y-77686486D01*
X162638020Y-77806374D01*
X163736395Y-76708000D01*
X164095605Y-76708000D01*
X165193980Y-77806374D01*
X165478836Y-77686486D01*
X165639699Y-77362790D01*
X165734322Y-77013931D01*
X165759067Y-76653316D01*
X165754785Y-76620000D01*
X170469928Y-76620000D01*
X170469928Y-78320000D01*
X170482188Y-78444482D01*
X170518498Y-78564180D01*
X170577463Y-78674494D01*
X170656815Y-78771185D01*
X170753506Y-78850537D01*
X170863820Y-78909502D01*
X170936380Y-78931513D01*
X170804525Y-79063368D01*
X170642010Y-79306589D01*
X170530068Y-79576842D01*
X170473000Y-79863740D01*
X170473000Y-80156260D01*
X170530068Y-80443158D01*
X170642010Y-80713411D01*
X170804525Y-80956632D01*
X171011368Y-81163475D01*
X171193534Y-81285195D01*
X171076645Y-81354822D01*
X170860412Y-81549731D01*
X170686359Y-81783080D01*
X170561175Y-82045901D01*
X170516524Y-82193110D01*
X170637845Y-82423000D01*
X171831000Y-82423000D01*
X171831000Y-82403000D01*
X172085000Y-82403000D01*
X172085000Y-82423000D01*
X173278155Y-82423000D01*
X173399476Y-82193110D01*
X173354825Y-82045901D01*
X173229641Y-81783080D01*
X173055588Y-81549731D01*
X172839355Y-81354822D01*
X172722466Y-81285195D01*
X172904632Y-81163475D01*
X173111475Y-80956632D01*
X173273990Y-80713411D01*
X173385932Y-80443158D01*
X173443000Y-80156260D01*
X173443000Y-79863740D01*
X173385932Y-79576842D01*
X173273990Y-79306589D01*
X173111475Y-79063368D01*
X172979620Y-78931513D01*
X173052180Y-78909502D01*
X173162494Y-78850537D01*
X173259185Y-78771185D01*
X173338537Y-78674494D01*
X173397502Y-78564180D01*
X173433812Y-78444482D01*
X173446072Y-78320000D01*
X173446072Y-76620000D01*
X173433812Y-76495518D01*
X173397502Y-76375820D01*
X173338537Y-76265506D01*
X173259185Y-76168815D01*
X173162494Y-76089463D01*
X173052180Y-76030498D01*
X172932482Y-75994188D01*
X172808000Y-75981928D01*
X171108000Y-75981928D01*
X170983518Y-75994188D01*
X170863820Y-76030498D01*
X170753506Y-76089463D01*
X170656815Y-76168815D01*
X170577463Y-76265506D01*
X170518498Y-76375820D01*
X170482188Y-76495518D01*
X170469928Y-76620000D01*
X165754785Y-76620000D01*
X165712985Y-76294802D01*
X165597846Y-75952167D01*
X165478836Y-75729514D01*
X165193980Y-75609626D01*
X164095605Y-76708000D01*
X163736395Y-76708000D01*
X162638020Y-75609626D01*
X162353164Y-75729514D01*
X162192301Y-76053210D01*
X162168031Y-76142690D01*
X162042156Y-75838801D01*
X161841338Y-75538256D01*
X161733102Y-75430020D01*
X162817626Y-75430020D01*
X163916000Y-76528395D01*
X165014374Y-75430020D01*
X164894486Y-75145164D01*
X164570790Y-74984301D01*
X164221931Y-74889678D01*
X163861316Y-74864933D01*
X163502802Y-74911015D01*
X163160167Y-75026154D01*
X162937514Y-75145164D01*
X162817626Y-75430020D01*
X161733102Y-75430020D01*
X161585744Y-75282662D01*
X161285199Y-75081844D01*
X160951250Y-74943518D01*
X160596732Y-74873000D01*
X160235268Y-74873000D01*
X159880750Y-74943518D01*
X159546801Y-75081844D01*
X159246256Y-75282662D01*
X158990662Y-75538256D01*
X158789844Y-75838801D01*
X158666000Y-76137787D01*
X158542156Y-75838801D01*
X158341338Y-75538256D01*
X158085744Y-75282662D01*
X157785199Y-75081844D01*
X157451250Y-74943518D01*
X157096732Y-74873000D01*
X156735268Y-74873000D01*
X156380750Y-74943518D01*
X156046801Y-75081844D01*
X155746256Y-75282662D01*
X155490662Y-75538256D01*
X155289844Y-75838801D01*
X155254072Y-75925162D01*
X155254072Y-75508000D01*
X155241812Y-75383518D01*
X155205502Y-75263820D01*
X155146537Y-75153506D01*
X155067185Y-75056815D01*
X154970494Y-74977463D01*
X154860180Y-74918498D01*
X154740482Y-74882188D01*
X154616000Y-74869928D01*
X152216000Y-74869928D01*
X152091518Y-74882188D01*
X151971820Y-74918498D01*
X151861506Y-74977463D01*
X151764815Y-75056815D01*
X151685463Y-75153506D01*
X151626498Y-75263820D01*
X151590188Y-75383518D01*
X151577928Y-75508000D01*
X148736394Y-75508000D01*
X148814374Y-75430020D01*
X148694486Y-75145164D01*
X148370790Y-74984301D01*
X148021931Y-74889678D01*
X147661316Y-74864933D01*
X147302802Y-74911015D01*
X146960167Y-75026154D01*
X146737514Y-75145164D01*
X146617626Y-75430020D01*
X145533102Y-75430020D01*
X145385744Y-75282662D01*
X145085199Y-75081844D01*
X144751250Y-74943518D01*
X144396732Y-74873000D01*
X144035268Y-74873000D01*
X143680750Y-74943518D01*
X143346801Y-75081844D01*
X143046256Y-75282662D01*
X142790662Y-75538256D01*
X142589844Y-75838801D01*
X142554072Y-75925162D01*
X142554072Y-75508000D01*
X142541812Y-75383518D01*
X142505502Y-75263820D01*
X142446537Y-75153506D01*
X142367185Y-75056815D01*
X142270494Y-74977463D01*
X142160180Y-74918498D01*
X142040482Y-74882188D01*
X141916000Y-74869928D01*
X139516000Y-74869928D01*
X139391518Y-74882188D01*
X139271820Y-74918498D01*
X139161506Y-74977463D01*
X139064815Y-75056815D01*
X138985463Y-75153506D01*
X138926498Y-75263820D01*
X138890188Y-75383518D01*
X138877928Y-75508000D01*
X125660000Y-75508000D01*
X125660000Y-73148292D01*
X125739890Y-73549925D01*
X125908369Y-73956669D01*
X126152962Y-74322729D01*
X126464271Y-74634038D01*
X126830331Y-74878631D01*
X127237075Y-75047110D01*
X127668872Y-75133000D01*
X128109128Y-75133000D01*
X128540925Y-75047110D01*
X128947669Y-74878631D01*
X129313729Y-74634038D01*
X129625038Y-74322729D01*
X129869631Y-73956669D01*
X130038110Y-73549925D01*
X130124000Y-73118128D01*
X130124000Y-72677872D01*
X169850000Y-72677872D01*
X169850000Y-73118128D01*
X169935890Y-73549925D01*
X170104369Y-73956669D01*
X170348962Y-74322729D01*
X170660271Y-74634038D01*
X171026331Y-74878631D01*
X171433075Y-75047110D01*
X171864872Y-75133000D01*
X172305128Y-75133000D01*
X172736925Y-75047110D01*
X173143669Y-74878631D01*
X173509729Y-74634038D01*
X173821038Y-74322729D01*
X174065631Y-73956669D01*
X174234110Y-73549925D01*
X174320000Y-73118128D01*
X174320000Y-72677872D01*
X174234110Y-72246075D01*
X174065631Y-71839331D01*
X173821038Y-71473271D01*
X173509729Y-71161962D01*
X173143669Y-70917369D01*
X172736925Y-70748890D01*
X172305128Y-70663000D01*
X171864872Y-70663000D01*
X171433075Y-70748890D01*
X171026331Y-70917369D01*
X170660271Y-71161962D01*
X170348962Y-71473271D01*
X170104369Y-71839331D01*
X169935890Y-72246075D01*
X169850000Y-72677872D01*
X130124000Y-72677872D01*
X130038110Y-72246075D01*
X129869631Y-71839331D01*
X129625038Y-71473271D01*
X129313729Y-71161962D01*
X128947669Y-70917369D01*
X128540925Y-70748890D01*
X128109128Y-70663000D01*
X127668872Y-70663000D01*
X127237075Y-70748890D01*
X126830331Y-70917369D01*
X126464271Y-71161962D01*
X126152962Y-71473271D01*
X125908369Y-71839331D01*
X125739890Y-72246075D01*
X125660000Y-72647708D01*
X125660000Y-70660000D01*
X174340001Y-70660000D01*
X174340000Y-88881000D01*
G37*
%TD.AperFunction*%
%TD*%
M02*
